<svg width="1803" height="567" viewBox="0 0 1803 567" fill="none" xmlns="http://www.w3.org/2000/svg">
<path d="M598.655 421.597C596.189 421.597 594.092 420.733 592.366 419.007C590.64 417.281 589.776 415.184 589.776 412.718V171.512C589.776 169.046 590.64 166.95 592.366 165.223C594.092 163.497 596.189 162.634 598.655 162.634H633.43C636.143 162.634 638.239 163.497 639.719 165.223C641.446 166.95 642.309 169.046 642.309 171.512V412.718C642.309 415.184 641.446 417.281 639.719 419.007C638.239 420.733 636.143 421.597 633.43 421.597H598.655Z" fill="#F05A28"/>
<path d="M680.114 421.597C677.647 421.597 675.551 420.733 673.825 419.007C672.098 417.281 671.235 415.184 671.235 412.718V238.103C671.235 235.636 672.098 233.54 673.825 231.814C675.551 230.087 677.647 229.224 680.114 229.224H710.449C712.916 229.224 715.012 230.087 716.739 231.814C718.465 233.54 719.328 235.636 719.328 238.103V253.271C725.741 245.378 733.879 238.843 743.745 233.663C753.857 228.238 766.311 225.525 781.109 225.525C796.154 225.525 809.225 228.977 820.324 235.883C831.422 242.542 839.931 252.037 845.85 264.369C852.016 276.701 855.099 291.498 855.099 308.763V412.718C855.099 415.184 854.236 417.281 852.509 419.007C850.783 420.733 848.686 421.597 846.22 421.597H813.665C811.198 421.597 809.102 420.733 807.376 419.007C805.649 417.281 804.786 415.184 804.786 412.718V310.982C804.786 296.678 801.21 285.456 794.057 277.317C787.152 269.178 777.04 265.109 763.722 265.109C750.897 265.109 740.662 269.178 733.016 277.317C725.371 285.456 721.548 296.678 721.548 310.982V412.718C721.548 415.184 720.685 417.281 718.958 419.007C717.232 420.733 715.135 421.597 712.669 421.597H680.114Z" fill="#F05A28"/>
<path d="M962.208 421.597C947.41 421.597 934.955 419.007 924.843 413.828C914.732 408.648 907.209 401.003 902.277 390.891C897.344 380.532 894.878 367.708 894.878 352.416V268.438H865.652C863.186 268.438 861.089 267.575 859.363 265.849C857.636 264.122 856.773 262.026 856.773 259.56V238.103C856.773 235.636 857.636 233.54 859.363 231.814C861.089 230.087 863.186 229.224 865.652 229.224H894.878V167.813C894.878 165.346 895.618 163.25 897.097 161.524C898.824 159.797 901.043 158.934 903.756 158.934H933.722C936.188 158.934 938.285 159.797 940.011 161.524C941.738 163.25 942.601 165.346 942.601 167.813V229.224H988.844C991.311 229.224 993.407 230.087 995.133 231.814C996.86 233.54 997.723 235.636 997.723 238.103V259.56C997.723 262.026 996.86 264.122 995.133 265.849C993.407 267.575 991.311 268.438 988.844 268.438H942.601V348.717C942.601 358.829 944.327 366.721 947.78 372.394C951.48 378.066 957.769 380.902 966.647 380.902H992.174C994.64 380.902 996.736 381.766 998.463 383.492C1000.19 385.218 1001.05 387.315 1001.05 389.781V412.718C1001.05 415.184 1000.19 417.281 998.463 419.007C996.736 420.733 994.64 421.597 992.174 421.597H962.208Z" fill="#F05A28"/>
<path d="M1092.09 425.296C1064.71 425.296 1043.01 417.404 1026.98 401.619C1010.94 385.835 1002.31 363.392 1001.08 334.289C1000.83 331.823 1000.71 328.74 1000.71 325.04C1000.71 321.094 1000.83 318.011 1001.08 315.792C1002.07 297.294 1006.26 281.263 1013.66 267.699C1021.3 254.134 1031.79 243.775 1045.1 236.623C1058.42 229.224 1074.08 225.525 1092.09 225.525C1112.06 225.525 1128.83 229.717 1142.4 238.103C1155.96 246.242 1166.2 257.71 1173.1 272.508C1180.01 287.059 1183.46 303.953 1183.46 323.191V330.96C1183.46 333.426 1182.6 335.522 1180.87 337.249C1179.15 338.975 1176.93 339.838 1174.21 339.838H1051.39C1051.39 339.838 1051.39 340.208 1051.39 340.948C1051.39 341.688 1051.39 342.305 1051.39 342.798C1051.64 351.43 1053.24 359.445 1056.2 366.844C1059.41 373.997 1063.97 379.793 1069.89 384.232C1076.06 388.671 1083.33 390.891 1091.72 390.891C1098.62 390.891 1104.42 389.904 1109.1 387.931C1113.79 385.712 1117.61 383.245 1120.57 380.532C1123.53 377.819 1125.63 375.6 1126.86 373.873C1129.08 370.914 1130.81 369.187 1132.04 368.694C1133.52 367.954 1135.62 367.584 1138.33 367.584H1170.15C1172.61 367.584 1174.58 368.324 1176.06 369.804C1177.79 371.284 1178.53 373.133 1178.28 375.353C1178.04 379.299 1175.94 384.109 1172 389.781C1168.3 395.454 1162.87 401.003 1155.72 406.429C1148.57 411.855 1139.56 416.417 1128.71 420.117C1118.11 423.57 1105.9 425.296 1092.09 425.296ZM1051.39 308.763H1133.15V307.653C1133.15 298.034 1131.55 289.649 1128.34 282.496C1125.14 275.344 1120.45 269.672 1114.28 265.479C1108.12 261.286 1100.72 259.19 1092.09 259.19C1083.45 259.19 1076.06 261.286 1069.89 265.479C1063.72 269.672 1059.04 275.344 1055.83 282.496C1052.87 289.649 1051.39 298.034 1051.39 307.653V308.763Z" fill="#F05A28"/>
<path d="M1206.96 421.597C1204.49 421.597 1202.4 420.733 1200.67 419.007C1198.94 417.281 1198.08 415.184 1198.08 412.718V238.103C1198.08 235.636 1198.94 233.54 1200.67 231.814C1202.4 230.087 1204.49 229.224 1206.96 229.224H1237.29C1239.76 229.224 1241.86 230.087 1243.58 231.814C1245.31 233.54 1246.17 235.636 1246.17 238.103V253.271C1252.59 245.378 1260.72 238.843 1270.59 233.663C1280.7 228.238 1293.16 225.525 1307.95 225.525C1323 225.525 1336.07 228.977 1347.17 235.883C1358.27 242.542 1366.78 252.037 1372.7 264.369C1378.86 276.701 1381.94 291.498 1381.94 308.763V412.718C1381.94 415.184 1381.08 417.281 1379.35 419.007C1377.63 420.733 1375.53 421.597 1373.07 421.597H1340.51C1338.04 421.597 1335.95 420.733 1334.22 419.007C1332.49 417.281 1331.63 415.184 1331.63 412.718V310.982C1331.63 296.678 1328.05 285.456 1320.9 277.317C1314 269.178 1303.88 265.109 1290.57 265.109C1277.74 265.109 1267.51 269.178 1259.86 277.317C1252.22 285.456 1248.39 296.678 1248.39 310.982V412.718C1248.39 415.184 1247.53 417.281 1245.8 419.007C1244.08 420.733 1241.98 421.597 1239.51 421.597H1206.96Z" fill="#F05A28"/>
<path d="M1489.05 421.597C1474.26 421.597 1461.8 419.007 1451.69 413.828C1441.58 408.648 1434.05 401.003 1429.12 390.891C1424.19 380.532 1421.72 367.708 1421.72 352.416V268.438H1392.5C1390.03 268.438 1387.93 267.575 1386.21 265.849C1384.48 264.122 1383.62 262.026 1383.62 259.56V238.103C1383.62 235.636 1384.48 233.54 1386.21 231.814C1387.93 230.087 1390.03 229.224 1392.5 229.224H1421.72V167.813C1421.72 165.346 1422.46 163.25 1423.94 161.524C1425.67 159.797 1427.89 158.934 1430.6 158.934H1460.57C1463.03 158.934 1465.13 159.797 1466.86 161.524C1468.58 163.25 1469.45 165.346 1469.45 167.813V229.224H1515.69C1518.16 229.224 1520.25 230.087 1521.98 231.814C1523.7 233.54 1524.57 235.636 1524.57 238.103V259.56C1524.57 262.026 1523.7 264.122 1521.98 265.849C1520.25 267.575 1518.16 268.438 1515.69 268.438H1469.45V348.717C1469.45 358.829 1471.17 366.721 1474.63 372.394C1478.32 378.066 1484.61 380.902 1493.49 380.902H1519.02C1521.49 380.902 1523.58 381.766 1525.31 383.492C1527.03 385.218 1527.9 387.315 1527.9 389.781V412.718C1527.9 415.184 1527.03 417.281 1525.31 419.007C1523.58 420.733 1521.49 421.597 1519.02 421.597H1489.05Z" fill="#F05A28"/>
<path d="M1608.94 425.296C1594.15 425.296 1581.44 423.57 1570.84 420.117C1560.48 416.664 1551.97 412.348 1545.31 407.169C1538.65 401.989 1533.72 396.81 1530.51 391.631C1527.31 386.452 1525.58 382.136 1525.33 378.683C1525.09 375.97 1525.83 373.873 1527.55 372.394C1529.53 370.667 1531.62 369.804 1533.84 369.804H1563.07C1564.06 369.804 1564.92 369.927 1565.66 370.174C1566.4 370.421 1567.39 371.16 1568.62 372.394C1571.82 375.107 1575.15 377.943 1578.61 380.902C1582.31 383.862 1586.62 386.452 1591.56 388.671C1596.49 390.644 1602.65 391.631 1610.05 391.631C1619.67 391.631 1627.69 389.781 1634.1 386.082C1640.76 382.136 1644.09 376.586 1644.09 369.434C1644.09 364.255 1642.61 360.062 1639.65 356.856C1636.94 353.65 1631.76 350.813 1624.11 348.347C1616.47 345.634 1605.61 342.798 1591.56 339.838C1577.74 336.632 1566.28 332.563 1557.15 327.63C1548.03 322.697 1541.24 316.532 1536.8 309.133C1532.36 301.734 1530.14 293.102 1530.14 283.236C1530.14 273.618 1532.98 264.492 1538.65 255.86C1544.57 246.982 1553.2 239.706 1564.55 234.033C1576.14 228.361 1590.45 225.525 1607.46 225.525C1620.78 225.525 1632.37 227.251 1642.24 230.704C1652.1 233.91 1660.24 237.979 1666.65 242.912C1673.31 247.845 1678.37 252.901 1681.82 258.08C1685.28 263.013 1687.13 267.329 1687.37 271.028C1687.62 273.741 1686.88 275.961 1685.15 277.687C1683.43 279.167 1681.45 279.907 1679.23 279.907H1651.86C1650.62 279.907 1649.51 279.66 1648.53 279.167C1647.54 278.674 1646.55 278.057 1645.57 277.317C1642.85 274.851 1639.9 272.261 1636.69 269.548C1633.48 266.835 1629.54 264.492 1624.85 262.519C1620.41 260.3 1614.49 259.19 1607.09 259.19C1597.72 259.19 1590.57 261.286 1585.64 265.479C1580.7 269.425 1578.24 274.481 1578.24 280.647C1578.24 284.839 1579.35 288.539 1581.57 291.745C1584.03 294.705 1588.84 297.541 1595.99 300.254C1603.15 302.967 1614 305.803 1628.55 308.763C1645.07 311.722 1658.15 316.162 1667.76 322.081C1677.63 327.753 1684.54 334.412 1688.48 342.058C1692.67 349.457 1694.77 357.719 1694.77 366.844C1694.77 377.943 1691.44 387.931 1684.78 396.81C1678.37 405.689 1668.75 412.718 1655.93 417.897C1643.35 422.83 1627.69 425.296 1608.94 425.296Z" fill="#F05A28"/>
<path d="M456.316 89.0723C441.878 89.0723 428.472 96.5584 420.908 108.865L339.419 229.853C336.764 233.841 337.841 239.217 341.829 241.871C345.061 244.026 349.337 243.759 352.28 241.227L432.492 171.653C433.825 170.453 435.88 170.575 437.079 171.908C437.624 172.519 437.912 173.308 437.912 174.118V391.949C437.912 393.748 436.457 395.192 434.658 395.192C433.692 395.192 432.781 394.77 432.17 394.026L189.701 103.778C181.804 94.4592 170.208 89.0834 158.002 89.0723H149.528C126.593 89.0723 108 107.665 108 130.601V437.398C108 460.334 126.593 478.927 149.528 478.927C163.967 478.927 177.372 471.441 184.936 459.135L266.426 338.146C269.08 334.159 268.003 328.783 264.015 326.129C260.783 323.974 256.507 324.24 253.564 326.773L173.352 396.347C172.019 397.547 169.964 397.424 168.765 396.092C168.22 395.481 167.932 394.692 167.943 393.881V175.996C167.943 174.196 169.398 172.752 171.197 172.752C172.152 172.752 173.074 173.174 173.685 173.919L416.121 464.222C424.018 473.541 435.613 478.916 447.82 478.927H456.294C479.229 478.939 497.833 460.357 497.855 437.421V130.601C497.855 107.665 479.263 89.0723 456.327 89.0723H456.316Z" fill="white"/>
</svg>
