<svg width="2826" height="567" viewBox="0 0 2826 567" fill="none" xmlns="http://www.w3.org/2000/svg">
<path d="M278.951 126.199C245.606 126.199 221.358 134.081 200.756 152.264L164.378 183.78C161.345 186.211 155.28 188.028 151.045 184.382C146.797 180.748 146.195 175.898 149.829 171.049L169.228 141.951C172.26 137.703 169.842 132.252 164.378 132.252H117.699C112.248 132.252 108 136.5 108 141.951V425.658C108 431.109 112.248 435.357 117.699 435.357H166.195C171.646 435.357 175.894 431.109 175.894 425.658V265.622C175.894 192.276 237.122 180.76 260.154 180.76C309.252 180.76 326.833 215.923 326.833 242.589V425.658C326.833 431.109 331.081 435.357 336.532 435.357H385.028C390.479 435.357 394.727 431.109 394.727 425.658V236.524C394.727 168.63 350.467 126.199 278.939 126.199H278.951Z" fill="white"/>
<path d="M592.334 124.986C498.374 124.986 438.362 182.58 438.362 260.775V303.82C438.362 386.263 498.374 442.641 592.334 442.641C675.378 442.641 733.573 399.596 739.638 341.401C740.252 335.336 736.004 331.1 729.939 331.1H682.659C678.411 331.1 674.777 333.531 673.561 337.767C667.496 357.165 639.012 386.263 592.334 386.263C545.655 386.263 502.008 352.316 502.61 303.82L503.224 249.873C503.826 209.259 546.269 181.377 592.334 181.377C634.163 181.377 674.777 205.023 679.012 243.82C679.363 248.306 676.28 252.354 671.857 253.206L535.943 279.584C530.492 280.8 526.244 285.649 526.244 291.702V292.303C526.244 297.755 531.695 302.604 539.577 302.604H734.776C740.14 302.604 744.475 298.256 744.475 292.905V254.722C744.475 182.592 682.032 124.999 592.321 124.999L592.334 124.986Z" fill="white"/>
<path d="M930.576 124.986C854.799 124.986 789.336 169.234 789.336 227.429C789.336 232.279 793.584 235.913 799.035 235.913H848.132C852.982 235.913 856.616 232.279 857.23 227.429C862.08 200.763 894.21 181.364 928.758 181.364C969.974 181.364 997.868 206.828 997.868 250.474V303.218C997.868 357.165 957.856 384.445 908.145 384.445C869.348 384.445 846.917 369.897 846.917 346.25C846.917 325.636 857.832 308.055 902.681 297.754L967.543 280.173C974.209 278.356 976.64 272.892 975.425 266.84C974.823 261.99 969.372 259.559 964.51 259.559H897.23C840.25 259.559 782.657 295.925 782.657 349.27V357.754C782.657 412.315 834.185 440.798 892.982 440.798C930.563 440.798 962.693 426.25 982.693 409.282L1012.4 383.819C1017.25 379.571 1022.1 379.571 1026.34 383.819C1029.97 387.453 1028.76 392.917 1025.73 397.152L1007.54 425.648C1004.51 429.896 1006.93 435.347 1012.39 435.347H1056.04C1061.49 435.347 1065.74 431.099 1065.74 425.648V241.965C1065.74 171.652 1015.42 124.974 930.55 124.974L930.576 124.986Z" fill="white"/>
<path d="M1327.62 132.265H1259.72C1236.09 132.265 1213.04 146.813 1196.68 160.761L1170.01 183.793C1166.98 186.224 1161.51 188.041 1157.88 185.009C1153.63 181.976 1151.81 175.911 1155.46 171.061L1174.86 141.964C1177.89 137.716 1175.47 132.265 1170.01 132.265H1124.55C1119.1 132.265 1114.85 136.513 1114.85 141.964V425.671C1114.85 431.122 1119.1 435.37 1124.55 435.37H1174.26C1179.71 435.37 1183.96 431.122 1183.96 425.671V280.183C1183.96 217.74 1209.42 189.858 1264.58 189.858H1327.63C1333.08 189.858 1337.33 185.61 1337.33 180.159V141.964C1337.33 136.513 1333.08 132.265 1327.63 132.265H1327.62Z" fill="white"/>
<path d="M1424.29 425.904C1421.53 425.904 1419.19 424.94 1417.27 423.012C1415.34 421.083 1414.37 418.742 1414.37 415.988V146.612C1414.37 143.857 1415.34 141.516 1417.27 139.588C1419.19 137.66 1421.53 136.696 1424.29 136.696H1463.13C1466.15 136.696 1468.5 137.66 1470.15 139.588C1472.08 141.516 1473.04 143.857 1473.04 146.612V415.988C1473.04 418.742 1472.08 421.083 1470.15 423.012C1468.5 424.94 1466.15 425.904 1463.13 425.904H1424.29Z" fill="#F05A28"/>
<path d="M1526.79 425.904C1524.03 425.904 1521.69 424.94 1519.76 423.012C1517.83 421.083 1516.87 418.742 1516.87 415.988V220.979C1516.87 218.225 1517.83 215.884 1519.76 213.956C1521.69 212.028 1524.03 211.064 1526.79 211.064H1560.66C1563.42 211.064 1565.76 212.028 1567.69 213.956C1569.62 215.884 1570.58 218.225 1570.58 220.979V237.919C1577.74 229.105 1586.83 221.806 1597.85 216.022C1609.14 209.962 1623.05 206.932 1639.58 206.932C1656.38 206.932 1670.98 210.788 1683.37 218.5C1695.77 225.937 1705.27 236.541 1711.88 250.313C1718.76 264.085 1722.21 280.611 1722.21 299.892V415.988C1722.21 418.742 1721.24 421.083 1719.32 423.012C1717.39 424.94 1715.05 425.904 1712.29 425.904H1675.93C1673.18 425.904 1670.84 424.94 1668.91 423.012C1666.98 421.083 1666.02 418.742 1666.02 415.988V302.371C1666.02 286.395 1662.02 273.863 1654.04 264.774C1646.33 255.684 1635.03 251.14 1620.16 251.14C1605.84 251.14 1594.41 255.684 1585.87 264.774C1577.33 273.863 1573.06 286.395 1573.06 302.371V415.988C1573.06 418.742 1572.1 421.083 1570.17 423.012C1568.24 424.94 1565.9 425.904 1563.14 425.904H1526.79Z" fill="#F05A28"/>
<path d="M1853.35 425.904C1836.83 425.904 1822.92 423.012 1811.62 417.227C1800.33 411.443 1791.93 402.905 1786.42 391.612C1780.91 380.044 1778.16 365.721 1778.16 348.644V254.858H1745.52C1742.76 254.858 1740.42 253.894 1738.49 251.966C1736.57 250.038 1735.6 247.697 1735.6 244.942V220.979C1735.6 218.225 1736.57 215.884 1738.49 213.956C1740.42 212.028 1742.76 211.064 1745.52 211.064H1778.16V142.48C1778.16 139.726 1778.98 137.385 1780.64 135.457C1782.56 133.528 1785.04 132.564 1788.07 132.564H1821.54C1824.29 132.564 1826.63 133.528 1828.56 135.457C1830.49 137.385 1831.45 139.726 1831.45 142.48V211.064H1883.1C1885.85 211.064 1888.19 212.028 1890.12 213.956C1892.05 215.884 1893.01 218.225 1893.01 220.979V244.942C1893.01 247.697 1892.05 250.038 1890.12 251.966C1888.19 253.894 1885.85 254.858 1883.1 254.858H1831.45V344.512C1831.45 355.805 1833.38 364.619 1837.24 370.954C1841.37 377.289 1848.39 380.457 1858.31 380.457H1886.82C1889.57 380.457 1891.91 381.421 1893.84 383.349C1895.77 385.277 1896.73 387.618 1896.73 390.372V415.988C1896.73 418.742 1895.77 421.083 1893.84 423.012C1891.91 424.94 1889.57 425.904 1886.82 425.904H1853.35Z" fill="#F05A28"/>
<path d="M2009.92 430.035C1979.35 430.035 1955.11 421.221 1937.21 403.593C1919.3 385.965 1909.66 360.901 1908.29 328.399C1908.01 325.645 1907.87 322.202 1907.87 318.07C1907.87 313.664 1908.01 310.221 1908.29 307.742C1909.39 287.084 1914.07 269.181 1922.33 254.032C1930.87 238.883 1942.58 227.314 1957.45 219.327C1972.33 211.064 1989.82 206.932 2009.92 206.932C2032.23 206.932 2050.96 211.615 2066.11 220.979C2081.26 230.069 2092.69 242.876 2100.4 259.403C2108.12 275.653 2111.97 294.521 2111.97 316.005V324.681C2111.97 327.435 2111.01 329.776 2109.08 331.705C2107.15 333.633 2104.67 334.597 2101.64 334.597H1964.48C1964.48 334.597 1964.48 335.01 1964.48 335.836C1964.48 336.662 1964.48 337.351 1964.48 337.902C1964.75 347.542 1966.54 356.494 1969.85 364.757C1973.43 372.744 1978.52 379.217 1985.13 384.175C1992.02 389.133 2000.15 391.612 2009.51 391.612C2017.22 391.612 2023.7 390.51 2028.93 388.307C2034.16 385.828 2038.43 383.073 2041.74 380.044C2045.04 377.014 2047.38 374.535 2048.76 372.607C2051.24 369.302 2053.17 367.373 2054.54 366.823C2056.2 365.996 2058.54 365.583 2061.57 365.583H2097.1C2099.85 365.583 2102.06 366.409 2103.71 368.062C2105.64 369.715 2106.46 371.78 2106.19 374.259C2105.91 378.666 2103.57 384.037 2099.16 390.372C2095.03 396.707 2088.97 402.905 2080.99 408.964C2073 415.024 2062.94 420.119 2050.83 424.251C2038.98 428.107 2025.35 430.035 2009.92 430.035ZM1964.48 299.892H2055.78V298.652C2055.78 287.91 2053.99 278.545 2050.41 270.558C2046.83 262.57 2041.6 256.235 2034.71 251.553C2027.83 246.87 2019.56 244.529 2009.92 244.529C2000.28 244.529 1992.02 246.87 1985.13 251.553C1978.25 256.235 1973.01 262.57 1969.43 270.558C1966.13 278.545 1964.48 287.91 1964.48 298.652V299.892Z" fill="#F05A28"/>
<path d="M2149.74 425.904C2146.98 425.904 2144.64 424.94 2142.71 423.012C2140.78 421.083 2139.82 418.742 2139.82 415.988V220.979C2139.82 218.225 2140.78 215.884 2142.71 213.956C2144.64 212.028 2146.98 211.064 2149.74 211.064H2183.62C2186.37 211.064 2188.71 212.028 2190.64 213.956C2192.57 215.884 2193.53 218.225 2193.53 220.979V237.919C2200.69 229.105 2209.78 221.806 2220.8 216.022C2232.09 209.962 2246 206.932 2262.53 206.932C2279.33 206.932 2293.93 210.788 2306.32 218.5C2318.72 225.937 2328.22 236.541 2334.83 250.313C2341.72 264.085 2345.16 280.611 2345.16 299.892V415.988C2345.16 418.742 2344.19 421.083 2342.27 423.012C2340.34 424.94 2338 425.904 2335.24 425.904H2298.89C2296.13 425.904 2293.79 424.94 2291.86 423.012C2289.93 421.083 2288.97 418.742 2288.97 415.988V302.371C2288.97 286.395 2284.98 273.863 2276.99 264.774C2269.28 255.684 2257.98 251.14 2243.11 251.14C2228.79 251.14 2217.36 255.684 2208.82 264.774C2200.28 273.863 2196.01 286.395 2196.01 302.371V415.988C2196.01 418.742 2195.05 421.083 2193.12 423.012C2191.19 424.94 2188.85 425.904 2186.09 425.904H2149.74Z" fill="#F05A28"/>
<path d="M2476.3 425.904C2459.78 425.904 2445.87 423.012 2434.57 417.227C2423.28 411.443 2414.88 402.905 2409.37 391.612C2403.86 380.044 2401.11 365.721 2401.11 348.644V254.858H2368.47C2365.71 254.858 2363.37 253.894 2361.45 251.966C2359.52 250.038 2358.55 247.697 2358.55 244.942V220.979C2358.55 218.225 2359.52 215.884 2361.45 213.956C2363.37 212.028 2365.71 211.064 2368.47 211.064H2401.11V142.48C2401.11 139.726 2401.93 137.385 2403.59 135.457C2405.51 133.528 2407.99 132.564 2411.02 132.564H2444.49C2447.24 132.564 2449.58 133.528 2451.51 135.457C2453.44 137.385 2454.4 139.726 2454.4 142.48V211.064H2506.05C2508.8 211.064 2511.14 212.028 2513.07 213.956C2515 215.884 2515.96 218.225 2515.96 220.979V244.942C2515.96 247.697 2515 250.038 2513.07 251.966C2511.14 253.894 2508.8 254.858 2506.05 254.858H2454.4V344.512C2454.4 355.805 2456.33 364.619 2460.19 370.954C2464.32 377.289 2471.34 380.457 2481.26 380.457H2509.77C2512.52 380.457 2514.86 381.421 2516.79 383.349C2518.72 385.277 2519.68 387.618 2519.68 390.372V415.988C2519.68 418.742 2518.72 421.083 2516.79 423.012C2514.86 424.94 2512.52 425.904 2509.77 425.904H2476.3Z" fill="#F05A28"/>
<path d="M2621.72 430.035C2605.19 430.035 2591.01 428.107 2579.16 424.251C2567.6 420.395 2558.09 415.575 2550.66 409.791C2543.22 404.006 2537.71 398.222 2534.13 392.438C2530.55 386.654 2528.62 381.834 2528.35 377.978C2528.07 374.948 2528.9 372.607 2530.83 370.954C2533.03 369.026 2535.37 368.062 2537.85 368.062H2570.49C2571.59 368.062 2572.55 368.2 2573.38 368.475C2574.21 368.751 2575.31 369.577 2576.69 370.954C2580.27 373.984 2583.98 377.151 2587.84 380.457C2591.97 383.762 2596.79 386.654 2602.3 389.133C2607.81 391.336 2614.7 392.438 2622.96 392.438C2633.7 392.438 2642.65 390.372 2649.81 386.241C2657.25 381.834 2660.97 375.637 2660.97 367.649C2660.97 361.865 2659.32 357.182 2656.01 353.602C2652.98 350.021 2647.2 346.854 2638.66 344.099C2630.12 341.069 2618 337.902 2602.3 334.597C2586.88 331.016 2574.07 326.471 2563.88 320.963C2553.69 315.454 2546.11 308.568 2541.15 300.305C2536.2 292.042 2533.72 282.402 2533.72 271.384C2533.72 260.642 2536.88 250.451 2543.22 240.811C2549.83 230.895 2559.47 222.77 2572.14 216.435C2585.09 210.1 2601.06 206.932 2620.07 206.932C2634.94 206.932 2647.89 208.86 2658.9 212.716C2669.92 216.297 2679.01 220.842 2686.17 226.35C2693.61 231.859 2699.25 237.505 2703.11 243.29C2706.97 248.798 2709.03 253.618 2709.31 257.75C2709.58 260.78 2708.76 263.259 2706.83 265.187C2704.9 266.839 2702.7 267.666 2700.22 267.666H2669.64C2668.27 267.666 2667.03 267.39 2665.93 266.839C2664.82 266.289 2663.72 265.6 2662.62 264.774C2659.59 262.019 2656.29 259.127 2652.71 256.097C2649.12 253.068 2644.72 250.451 2639.48 248.247C2634.53 245.769 2627.92 244.529 2619.65 244.529C2609.19 244.529 2601.2 246.87 2595.69 251.553C2590.18 255.96 2587.43 261.606 2587.43 268.492C2587.43 273.174 2588.67 277.306 2591.15 280.887C2593.9 284.192 2599.27 287.359 2607.26 290.389C2615.25 293.419 2627.37 296.586 2643.62 299.892C2662.07 303.197 2676.67 308.155 2687.41 314.765C2698.43 321.1 2706.14 328.537 2710.55 337.076C2715.23 345.339 2717.57 354.566 2717.57 364.757C2717.57 377.151 2713.85 388.307 2706.42 398.222C2699.25 408.138 2688.51 415.988 2674.19 421.772C2660.14 427.281 2642.65 430.035 2621.72 430.035Z" fill="#F05A28"/>
</svg>
