<svg width="103" height="28" viewBox="0 0 103 28" fill="none" xmlns="http://www.w3.org/2000/svg">
<path fill-rule="evenodd" clip-rule="evenodd" d="M96.1694 7.11247V17.8688H91.7658C90.7084 17.8688 89.8777 17.5945 89.2736 17.0459C88.6599 16.5066 88.3531 15.7687 88.3531 14.8322V13.5841C88.353 12.6475 88.6598 11.9096 89.2736 11.3704C89.8583 10.8393 90.6327 10.7208 91.662 10.5633H91.6627L91.7658 10.5476L94.0457 10.1935V7.11247H96.1694ZM94.0463 12.0417V16.0242L91.9081 16.024C91.4552 16.024 91.1059 15.9058 90.8602 15.6694C90.6719 15.5016 90.5531 15.2846 90.5039 15.0184V13.3975C90.553 13.1312 90.6718 12.9142 90.8602 12.7463C91.0817 12.5329 91.3762 12.4826 91.775 12.4145L91.7804 12.4136H91.7819C91.7998 12.4105 91.8179 12.4074 91.8364 12.4043L91.8377 12.4041C91.8608 12.4001 91.8843 12.3961 91.9081 12.392L94.0463 12.0417Z" fill="#0B0B17"/>
<path d="M53.9554 17.2165C54.4746 17.7178 55.2014 17.9684 56.1358 17.9684C56.4851 17.9684 56.8154 17.9448 57.1269 17.8975V16.0815C56.9287 16.1098 56.7635 16.124 56.6314 16.124C56.1877 16.124 55.8574 16.0294 55.6403 15.8403C55.4232 15.6416 55.3146 15.3437 55.3146 14.9464V11.9812H57.1269V10.1368H55.3146V8.09374H53.1908V8.94501C53.1908 9.34226 53.0823 9.64021 52.8652 9.83884C52.6575 10.0375 52.3555 10.1368 51.959 10.1368H51.8882V11.9812H53.1908V15.0883C53.1908 15.9963 53.4457 16.7057 53.9554 17.2165Z" fill="#0B0B17"/>
<path d="M70.1519 18.0633C69.3874 18.0633 68.6889 17.8883 68.0565 17.5384C67.4335 17.1789 66.9427 16.6918 66.584 16.077C66.2253 15.4528 66.0459 14.7623 66.0459 14.0056C66.0459 13.2489 66.2253 12.5632 66.584 11.9484C66.9427 11.3336 67.4335 10.8512 68.0565 10.5012C68.6889 10.1513 69.3874 9.97627 70.1519 9.97627C71.0203 9.97627 71.7802 10.1938 72.4315 10.6289C73.0922 11.064 73.5406 11.641 73.7766 12.3598L71.9359 13.1543C71.8038 12.7665 71.5773 12.4591 71.2563 12.2321C70.9354 12.0051 70.5673 11.8916 70.1519 11.8916C69.7838 11.8916 69.4535 11.9815 69.1608 12.1612C68.8682 12.3409 68.6417 12.5963 68.4812 12.9273C68.3208 13.2489 68.2405 13.6131 68.2405 14.0198C68.2405 14.4265 68.3208 14.7954 68.4812 15.1264C68.6417 15.448 68.8682 15.6987 69.1608 15.8784C69.4535 16.0581 69.7838 16.148 70.1519 16.148C70.5767 16.148 70.9448 16.0345 71.2563 15.8075C71.5773 15.5804 71.8038 15.273 71.9359 14.8852L73.7766 15.694C73.55 16.3939 73.1064 16.9661 72.4456 17.4107C71.7849 17.8458 71.0203 18.0633 70.1519 18.0633Z" fill="#0B0B17"/>
<path d="M78.4443 17.9684C77.5098 17.9684 76.783 17.7178 76.2639 17.2165C75.7542 16.7057 75.4993 15.9963 75.4993 15.0883V11.9812H74.1967V10.1368H74.2675C74.6639 10.1368 74.966 10.0375 75.1736 9.83884C75.3907 9.64021 75.4993 9.34226 75.4993 8.94501V8.09374H77.6231V10.1368H79.4354V11.9812H77.6231V14.9464C77.6231 15.3437 77.7316 15.6416 77.9487 15.8403C78.1658 16.0294 78.4962 16.124 78.9398 16.124C79.072 16.124 79.2372 16.1098 79.4354 16.0815V17.8975C79.1239 17.9448 78.7935 17.9684 78.4443 17.9684Z" fill="#0B0B17"/>
<path fill-rule="evenodd" clip-rule="evenodd" d="M47.6015 18.075C46.8463 18.075 46.1479 17.9 45.506 17.55C44.8736 17.2001 44.3733 16.7177 44.0052 16.1029C43.6371 15.4881 43.453 14.7976 43.453 14.0315C43.453 13.2653 43.6371 12.5749 44.0052 11.96C44.3733 11.3452 44.8736 10.8629 45.506 10.5129C46.1479 10.1629 46.8463 9.98794 47.6015 9.98794C48.3566 9.98794 49.0504 10.1629 49.6828 10.5129C50.3152 10.8629 50.8155 11.3452 51.1836 11.96C51.5517 12.5749 51.7358 13.2653 51.7358 14.0315C51.7358 14.7976 51.5517 15.4881 51.1836 16.1029C50.8155 16.7177 50.3152 17.2001 49.6828 17.55C49.0504 17.9 48.3566 18.075 47.6015 18.075ZM47.6015 16.1596C47.979 16.1596 48.3141 16.0698 48.6067 15.8901C48.8994 15.7104 49.1259 15.4597 49.2864 15.1381C49.4563 14.8165 49.5412 14.4476 49.5412 14.0315C49.5412 13.6247 49.4563 13.2606 49.2864 12.939C49.1259 12.6174 48.8994 12.3668 48.6067 12.1871C48.3141 11.9979 47.979 11.9033 47.6015 11.9033C47.2239 11.9033 46.8841 11.9979 46.5821 12.1871C46.2894 12.3668 46.0582 12.6174 45.8883 12.939C45.7278 13.2606 45.6476 13.6247 45.6476 14.0315C45.6476 14.4476 45.7278 14.8165 45.8883 15.1381C46.0582 15.4597 46.2894 15.7104 46.5821 15.8901C46.8841 16.0698 47.2239 16.1596 47.6015 16.1596Z" fill="#0B0B17"/>
<path d="M42.3039 11.9759H43.4619V10.1312H42.7488C41.1434 10.1312 40.3406 10.1312 39.7275 10.4443C39.1881 10.7198 38.7495 11.1593 38.4747 11.6999C38.1623 12.3144 38.1623 13.1188 38.1623 14.7274V17.8787H40.2864V13.9979C40.2864 13.29 40.2864 12.936 40.4238 12.6657C40.5447 12.4282 40.7375 12.235 40.9746 12.1139C41.2442 11.9761 41.5976 11.9759 42.3039 11.9759Z" fill="#0B0B17"/>
<path fill-rule="evenodd" clip-rule="evenodd" d="M29.7256 10.1312V20.8875H31.8493V17.8065L34.1291 17.4524L34.2322 17.4367H34.233C35.2622 17.2792 36.0367 17.1607 36.6214 16.6296C37.2351 16.0904 37.5419 15.3525 37.5418 14.4159V13.1678C37.5418 12.2313 37.235 11.4934 36.6214 10.9541C36.0173 10.4055 35.1865 10.1312 34.1291 10.1312H29.7256ZM31.8487 11.9758V15.9583L33.9869 15.608L34.0145 15.6032L34.0585 15.5957L34.0588 15.5957L34.0777 15.5925L34.113 15.5864H34.1145L34.1199 15.5855C34.5188 15.5174 34.8133 15.4671 35.0347 15.2537C35.2231 15.0858 35.3419 14.8688 35.3911 14.6025V12.9816C35.3419 12.7154 35.2231 12.4984 35.0347 12.3306C34.789 12.0942 34.4397 11.976 33.9869 11.976L31.8487 11.9758Z" fill="#0B0B17"/>
<path fill-rule="evenodd" clip-rule="evenodd" d="M81.9854 17.5359C82.5989 17.8953 83.3021 18.075 84.095 18.075C84.8785 18.075 85.5675 17.9047 86.1622 17.5642C86.7663 17.2143 87.1863 16.7555 87.4223 16.188L85.7233 15.3793C85.5722 15.6441 85.3599 15.8522 85.0861 16.0036C84.8124 16.1549 84.4915 16.2306 84.1233 16.2306C83.7175 16.2306 83.3635 16.1407 83.0614 15.961C82.7688 15.7718 82.5517 15.5117 82.4101 15.1807C82.3372 15.0101 82.288 14.8256 82.2627 14.6274H87.6772C87.7432 14.4287 87.7763 14.1544 87.7763 13.8045C87.7763 13.0856 87.6252 12.4377 87.3232 11.8607C87.0211 11.2743 86.5822 10.8156 86.0064 10.4845C85.4307 10.1535 84.7463 9.98794 83.9534 9.98794C83.2266 9.98794 82.5659 10.1629 81.9712 10.5129C81.3766 10.8629 80.9093 11.3452 80.5695 11.96C80.2297 12.5749 80.0598 13.2606 80.0598 14.0173C80.0598 14.7645 80.225 15.4502 80.5554 16.0745C80.8952 16.6893 81.3718 17.1764 81.9854 17.5359ZM82.3133 13.0667C82.3354 12.9622 82.363 12.8629 82.396 12.7688C82.5281 12.4188 82.7263 12.1539 82.9906 11.9742C83.2644 11.7851 83.5853 11.6905 83.9534 11.6905C84.3216 11.6905 84.6378 11.7851 84.9021 11.9742C85.1664 12.1539 85.3504 12.4046 85.4542 12.7262C85.4895 12.8353 85.5133 12.9488 85.5257 13.0667H82.3133Z" fill="#0B0B17"/>
<path fill-rule="evenodd" clip-rule="evenodd" d="M59.6782 17.5359C60.2918 17.8953 60.995 18.075 61.7879 18.075C62.5713 18.075 63.2604 17.9047 63.855 17.5642C64.4591 17.2143 64.8792 16.7555 65.1151 16.188L63.4161 15.3793C63.2651 15.6441 63.0527 15.8522 62.779 16.0036C62.5052 16.1549 62.1843 16.2306 61.8162 16.2306C61.4103 16.2306 61.0563 16.1407 60.7543 15.961C60.4617 15.7718 60.2446 15.5117 60.103 15.1807C60.03 15.0101 59.9809 14.8256 59.9555 14.6274H65.37C65.4361 14.4287 65.4691 14.1544 65.4691 13.8045C65.4691 13.0856 65.3181 12.4377 65.016 11.8607C64.714 11.2743 64.2751 10.8156 63.6993 10.4845C63.1235 10.1535 62.4392 9.98794 61.6463 9.98794C60.9195 9.98794 60.2587 10.1629 59.6641 10.5129C59.0694 10.8629 58.6022 11.3452 58.2624 11.96C57.9226 12.5749 57.7527 13.2606 57.7527 14.0173C57.7527 14.7645 57.9178 15.4502 58.2482 16.0745C58.588 16.6893 59.0647 17.1764 59.6782 17.5359ZM60.0062 13.0667C60.0283 12.9622 60.0558 12.8629 60.0888 12.7688C60.221 12.4188 60.4192 12.1539 60.6835 11.9742C60.9572 11.7851 61.2782 11.6905 61.6463 11.6905C62.0144 11.6905 62.3306 11.7851 62.5949 11.9742C62.8592 12.1539 63.0433 12.4046 63.1471 12.7262C63.1823 12.8353 63.2062 12.9488 63.2186 13.0667H60.0062Z" fill="#0B0B17"/>
<path d="M18.6029 3.0589C18.8473 2.7728 19.3941 3.05645 19.288 3.43476C19.1608 3.88824 19.0269 4.37426 18.8933 4.86486C18.6625 5.163 18.2532 5.38556 17.7449 5.5231C17.3368 5.63354 16.903 5.67831 16.5308 5.67463C17.1381 4.85509 17.8467 3.9439 18.6029 3.0589Z" fill="#0B0B17"/>
<path d="M16.0294 6.36134C15.7136 6.80033 15.4371 7.19696 15.2104 7.52818C15.4777 7.74939 16.0139 8.03019 16.6016 8.12577C17.1158 8.2094 17.6505 8.17128 18.1174 7.76325C18.2546 7.24318 18.4188 6.62456 18.593 5.9758C18.379 6.07836 18.154 6.15749 17.932 6.21754C17.2763 6.39499 16.5695 6.42798 16.0475 6.36402C16.0439 6.36357 16.0403 6.36308 16.0367 6.36253C16.0343 6.36216 16.0318 6.36176 16.0294 6.36134Z" fill="#0B0B17"/>
<path d="M15.2043 7.52179C15.0869 7.44365 14.9488 7.40167 14.8072 7.40167H14.6606C14.1284 7.40167 13.571 7.45042 13.0636 7.51419C13.3349 6.67671 13.8274 5.90825 14.2882 5.31593C14.5705 4.95303 14.7802 4.74602 14.9142 4.6319C14.9925 4.56528 15.0944 4.61901 15.0979 4.72186C15.1132 5.17658 15.152 6.2861 15.2043 7.52179Z" fill="#0B0B17"/>
<path d="M12.0969 12.3316C11.8851 12.4267 11.6284 12.3231 11.5234 12.1002C11.4185 11.8772 11.5051 11.6194 11.7169 11.5242C12.1575 11.3264 12.7815 11.1674 13.3984 11.1539C13.9986 11.1407 14.7007 11.2643 15.1814 11.7588C15.3529 11.9352 15.3601 12.213 15.1975 12.3791C15.0349 12.5453 14.764 12.537 14.5925 12.3606C14.3775 12.1394 13.9837 12.0201 13.465 12.0314C12.9628 12.0424 12.4447 12.1753 12.0969 12.3316Z" fill="#0B0B17"/>
<path d="M12.8232 13.5627C12.8232 13.323 13.0171 13.1288 13.2563 13.1288H14.2252C14.4643 13.1288 14.6582 13.323 14.6582 13.5627C14.6582 13.8023 14.4643 13.9965 14.2252 13.9965H13.2563C13.0171 13.9965 12.8232 13.8023 12.8232 13.5627Z" fill="#0B0B17"/>
<path fill-rule="evenodd" clip-rule="evenodd" d="M15.362 8.47387C15.6308 8.61156 15.9982 8.76206 16.421 8.83716C16.6107 8.87084 16.7854 8.88378 16.9411 8.88407C17.247 8.88128 17.5631 8.82622 17.8726 8.6958L17.8704 8.70388L18.0244 8.7564L18.0293 8.75809L18.0417 8.76237L18.0527 8.7662L18.0753 8.77413L18.0891 8.77903C18.1309 8.79382 18.1931 8.81612 18.2765 8.84669C18.4433 8.90784 18.6949 9.0021 19.037 9.13563C19.218 9.20628 19.3561 9.33607 19.4579 9.45979C19.5626 9.58708 19.6527 9.73733 19.7304 9.89071C19.8859 10.1974 20.0158 10.5652 20.1189 10.9072C20.223 11.2523 20.3044 11.5866 20.3597 11.8336C20.3874 11.9574 20.4087 12.0601 20.4232 12.1323C20.4305 12.1684 20.436 12.1969 20.4398 12.2167C20.4417 12.2266 20.4431 12.2342 20.4441 12.2396L20.4453 12.2459L20.4669 12.364L20.427 12.4743C20.2375 12.9994 20.363 13.3659 20.5834 13.7822C20.6167 13.8449 20.6566 13.9162 20.6991 13.9922L20.6993 13.9926L20.6999 13.9937C20.7876 14.1504 20.8864 14.3268 20.9611 14.4895C21.0825 14.7541 21.1823 15.0609 21.1764 15.417C21.1721 15.6796 21.1266 16.2314 21.0305 16.9243C21.0194 17.0385 21.0022 17.152 20.9812 17.2622C20.866 18.0152 20.6959 18.8922 20.4606 19.7331C20.2107 20.6262 19.8777 21.5147 19.4365 22.1747C19.0011 22.8261 18.3826 23.3616 17.5577 23.2829L17.5396 23.2812L17.5217 23.2779C15.8322 22.9719 13.945 22.4797 12.3989 21.6186C10.8482 20.7549 9.59111 19.4894 9.28073 17.6299L9.27901 17.6196L9.2567 17.4281C9.24324 17.3118 9.22392 17.1436 9.20046 16.9361C9.15353 16.5211 9.08999 15.9483 9.02355 15.3173C8.89107 14.0592 8.74563 12.5567 8.69874 11.6154C8.65958 10.8292 8.76703 10.0981 9.33699 9.51693C9.88132 8.96194 10.7795 8.61801 12.1112 8.38591C12.7867 8.26819 13.7714 8.12073 14.6609 8.12073L14.8075 8.12073L14.8096 8.12231L14.8101 8.12146C14.9547 8.23523 15.1426 8.35939 15.362 8.47387ZM17.979 9.66173C18.1395 9.72058 18.3846 9.81238 18.72 9.94327L18.7203 9.94351L18.7207 9.94383C18.7253 9.94685 18.7493 9.96286 18.7895 10.0118C18.84 10.0731 18.8973 10.1634 18.9582 10.2837C19.0802 10.5243 19.1929 10.8366 19.2899 11.1582C19.32 11.258 19.3481 11.3573 19.3742 11.4537C19.241 11.4209 19.1039 11.3945 18.9666 11.3757C18.6163 11.3277 18.2319 11.3251 17.891 11.4212C17.5457 11.5185 17.1889 11.7374 17.0296 12.1648C16.8786 12.57 16.9524 13.0434 17.173 13.5523C17.1775 13.5626 17.1824 13.5727 17.1876 13.5826C17.7056 14.5589 18.1086 15.3132 18.377 15.8138C18.4212 15.8963 18.3708 16.0019 18.2788 16.019L16.4912 16.3516C16.2579 16.395 16.0968 16.6239 16.1314 16.8629C16.1614 17.0705 16.3294 17.2175 16.526 17.2239L16.4667 17.4046C16.382 17.6624 16.1416 17.8367 15.8707 17.8367H14.1119C13.9227 17.8367 13.7435 17.7511 13.6244 17.6038L12.92 16.7328C12.7694 16.5466 12.4967 16.5179 12.3109 16.6688C12.1251 16.8197 12.0965 17.093 12.2471 17.2792L12.9515 18.1502C13.2351 18.5009 13.6615 18.7045 14.1119 18.7045H15.8707C16.5156 18.7045 17.0877 18.2898 17.2893 17.6759L17.3197 17.5834L17.4806 17.895C17.7371 18.392 18.2488 18.7041 18.8072 18.7042H19.6327C19.6992 18.7042 19.7656 18.6991 19.8311 18.6891C19.7697 18.959 19.7017 19.2309 19.6267 19.4988C19.3857 20.3601 19.0824 21.145 18.7169 21.6918C18.5664 21.917 18.4179 22.0846 18.2715 22.2021C18.2381 21.7885 18.1768 21.3743 18.117 21.0321C18.0854 20.8508 18.0537 20.687 18.0259 20.5508H18.1531C18.3922 20.5508 18.5861 20.3565 18.5861 20.1168C18.5861 19.8772 18.3922 19.6829 18.1531 19.6829H16.8207C16.5815 19.6829 16.3877 19.8772 16.3877 20.1168C16.3877 20.3565 16.5815 20.5508 16.8207 20.5508H17.1409L17.1462 20.5756C17.1783 20.7254 17.2212 20.9367 17.2639 21.1816C17.3274 21.5452 17.3885 21.9715 17.4159 22.3756C15.8353 22.0739 14.1681 21.6111 12.8197 20.86C11.405 20.0721 10.3908 18.9973 10.1367 17.4968L10.1325 17.4612C10.1289 17.4308 10.1237 17.386 10.117 17.3281C10.1036 17.2125 10.0844 17.0451 10.061 16.8384C10.0444 16.6912 10.0256 16.524 10.0054 16.3414C10.1995 16.4763 10.4273 16.5441 10.6636 16.5202C11.2662 16.4592 11.6957 15.8246 11.6229 15.1029C11.5502 14.3812 11.0027 13.8456 10.4001 13.9066C10.1596 13.931 9.94663 14.0467 9.78219 14.2229C9.68504 13.2417 9.59756 12.2509 9.56375 11.5722C9.5293 10.8806 9.63576 10.4504 9.95469 10.1253C10.2993 9.77394 10.965 9.46656 12.2596 9.24094C12.8897 9.13113 13.7494 9.00346 14.5267 8.9898L14.5398 8.99846L14.5487 9.00433C14.6396 9.06378 14.7699 9.14344 14.9329 9.22862C15.2574 9.3981 15.7211 9.59423 16.2699 9.6917C16.7841 9.78303 17.219 9.75626 17.5293 9.705C17.6748 9.68095 17.7934 9.65144 17.8806 9.62594C17.9089 9.63614 17.9416 9.64804 17.979 9.66173ZM17.9752 16.9642L18.2499 17.4964C18.3576 17.7052 18.5726 17.8363 18.8072 17.8363H19.6327C19.8243 17.8363 19.961 17.7279 20.003 17.5955C20.05 17.4471 20.095 17.2821 20.1276 17.1145C20.1637 16.8778 20.194 16.6548 20.2189 16.4513C19.8472 16.1574 19.666 15.6289 19.7241 15.0175C19.7481 14.7648 19.8436 14.5864 19.9678 14.4606C19.9218 14.3789 19.8724 14.2909 19.8184 14.1889C19.5748 13.7288 19.3519 13.1651 19.5355 12.4311C19.3292 12.3496 19.0794 12.2822 18.827 12.2476C18.539 12.2082 18.2799 12.2159 18.0914 12.2691C17.9073 12.3209 17.8487 12.3953 17.8259 12.4565C17.7952 12.5388 17.7726 12.7453 17.9485 13.1572C17.9929 13.2408 18.0364 13.3227 18.079 13.403C18.1425 13.2424 18.2989 13.1287 18.4818 13.1287H18.949C19.1882 13.1287 19.3821 13.323 19.3821 13.5626C19.3821 13.8023 19.1882 13.9966 18.949 13.9966H18.4818C18.4501 13.9966 18.4191 13.9932 18.3893 13.9867C18.6952 14.5612 18.9435 15.0257 19.128 15.3699C19.4549 15.9796 19.0825 16.7582 18.4041 16.8844L17.9752 16.9642Z" fill="#0B0B17"/>
<path fill-rule="evenodd" clip-rule="evenodd" d="M12.1803 22.3191C13.8018 23.1921 15.7211 23.6828 17.3928 23.9857L17.4107 23.9889C17.4305 23.9925 17.4504 23.9952 17.4704 23.9971L17.4885 23.9989C17.7561 24.0244 18.0051 24.0054 18.2359 23.9526C18.1802 24.0928 18.1093 24.2539 18.0224 24.443C17.8308 24.8602 17.3653 25.0687 16.9126 24.997C15.9451 24.8438 15.2323 24.9226 14.652 24.9867C14.0022 25.0585 13.5186 25.112 13.0297 24.8008C12.4134 24.4085 12.2288 23.2177 12.1803 22.3191ZM13.6501 24.4331C13.8715 24.4331 14.051 24.2533 14.051 24.0314C14.051 23.8096 13.8715 23.6297 13.6501 23.6297C13.4288 23.6297 13.2493 23.8096 13.2493 24.0314C13.2493 24.2533 13.4288 24.4331 13.6501 24.4331Z" fill="#0B0B17"/>
<path d="M8.47028 16.857L8.50333 17.149C8.52448 17.3357 8.54568 17.5228 8.5668 17.7106C8.56824 17.7233 8.57001 17.736 8.57212 17.7486C8.85088 19.4188 9.79039 20.6483 10.9729 21.5475C9.75254 21.734 7.71141 21.6855 6.00674 20.6596C5.68089 20.4635 5.34499 20.2089 5.18792 19.9989C4.83879 19.532 4.79832 19.1528 4.89693 18.8406C5.02172 18.4455 5.39998 18.052 6.0087 17.7033C6.67698 17.3205 7.55526 17.0305 8.47028 16.857Z" fill="#0B0B17"/>
<path d="M8.02697 12.3572C8.09424 13.2698 8.20684 14.4121 8.31012 15.393C8.33591 15.6379 8.36248 15.8825 8.38955 16.1272C7.37811 16.3108 6.39503 16.63 5.63457 17.0657C4.97074 17.4459 4.42005 17.9473 4.2194 18.5826C4.21306 18.6026 4.2071 18.6227 4.20151 18.6429C3.7079 17.6751 3.53885 16.6065 3.68532 15.6182C3.76044 15.1936 3.90595 14.8298 4.10112 14.5152C4.52712 13.8284 5.21585 13.3339 6.03773 12.9712C6.67093 12.6917 7.35698 12.4996 8.02697 12.3572Z" fill="#0B0B17"/>
<path d="M8.68253 7.55507C8.96138 6.62537 9.57763 5.76788 10.1514 5.12162C10.4926 4.7374 10.7408 4.52895 10.8916 4.42054C10.9719 4.36282 11.0692 4.41845 11.0736 4.51737C11.0958 5.02118 11.158 6.38876 11.2388 7.82982C10.2235 8.07051 9.39988 8.42731 8.82558 9.01286C8.05871 9.79475 7.94263 10.7586 7.98053 11.6132C7.23633 11.7672 6.45863 11.979 5.75168 12.291C4.88354 12.6742 4.07989 13.2232 3.55198 14.037C3.45772 13.3086 3.46414 12.4219 3.72246 11.5171C4.15432 10.0044 6.25691 9.09968 8.5789 8.56341C8.58346 8.15167 8.61212 7.78981 8.68253 7.55507Z" fill="#0B0B17"/>
<path fill-rule="evenodd" clip-rule="evenodd" d="M11.9072 27.9999C6.29411 27.9999 3.48755 27.9999 1.74377 26.2526C-9.9221e-07 24.5052 -6.49255e-07 21.6929 7.93359e-10 16.0682V11.9317C1.13106e-06 6.30707 1.55919e-06 3.49473 1.74378 1.74736C3.48755 0 6.29411 0 11.9072 0L92.5245 0.000123551C94.701 0.000102139 96.4402 8.50442e-05 97.8047 0.183919C99.2153 0.373953 100.38 0.777457 101.302 1.70141C102.224 2.62535 102.627 3.79268 102.817 5.20612C103 6.57344 103 8.3162 103 10.4972L103 16.006C103 17.4842 103 18.3895 102.811 19.2564C102.604 20.201 102.233 21.1016 101.713 21.9163C101.236 22.664 100.598 23.3048 99.5556 24.3511L99.3767 24.5307C98.3318 25.5803 97.6919 26.223 96.9444 26.7035C96.1299 27.227 95.2291 27.6015 94.2839 27.8094C93.4165 28.0002 92.5105 28.0001 91.031 28L11.9072 27.9999ZM24.9694 2.0851L24.9694 25.9148L90.9042 25.9149C92.5499 25.9149 93.2176 25.9092 93.8377 25.7728C94.5423 25.6178 95.2138 25.3387 95.821 24.9484C96.3553 24.6049 96.8309 24.1353 97.9934 22.9679C99.1525 21.804 99.6187 21.3278 99.9597 20.7933C100.347 20.1859 100.624 19.5146 100.778 18.8104C100.914 18.1906 100.919 17.5236 100.919 15.8793V10.5746C100.919 8.29841 100.917 6.69617 100.754 5.48395C100.596 4.30173 100.302 3.64776 99.8309 3.17579C99.3599 2.70383 98.7072 2.40937 97.5274 2.25043C96.3177 2.08745 94.7188 2.08523 92.4473 2.08522L24.9694 2.0851ZM15.8886 5.27018C15.9136 5.27293 15.9433 5.23298 16.0027 5.15307C16.6034 4.34556 17.3003 3.45206 18.0446 2.58095C18.4633 2.09091 19.075 2.16344 19.4222 2.34932C19.778 2.53976 20.1686 3.01246 19.9941 3.63433C19.8676 4.08555 19.7342 4.5697 19.6009 5.05905C19.5755 5.1524 19.5319 5.23981 19.4727 5.31627C19.4263 5.37622 19.3765 5.43309 19.3238 5.48701C19.2754 5.53647 19.2512 5.56122 19.2458 5.58615C19.2405 5.61108 19.2541 5.64807 19.2813 5.72205C19.3327 5.8621 19.3416 6.01738 19.3013 6.16739C19.1275 6.81491 18.9636 7.43247 18.8265 7.9518C18.8163 7.99046 18.8025 8.04246 18.7895 8.09179C18.7704 8.16372 18.7609 8.19968 18.7761 8.22968C18.7914 8.25968 18.8257 8.27297 18.8944 8.29954C18.9327 8.31439 18.9727 8.32964 19.0063 8.34189L19.0064 8.34196C19.1499 8.39434 19.2672 8.4372 19.3024 8.45093C19.6464 8.58519 19.8806 8.81909 20.0233 8.99266C20.174 9.17581 20.292 9.37692 20.384 9.55837C20.5678 9.92106 20.7123 10.3359 20.8206 10.6951C20.9315 11.0627 21.0173 11.4156 21.075 11.6733C21.1041 11.8032 21.1265 11.9113 21.1419 11.9881C21.1579 12.0679 21.172 12.1446 21.1851 12.2166L21.188 12.2321C21.2114 12.3603 21.2004 12.4924 21.1562 12.615L21.1163 12.7254C21.0612 12.878 21.0618 12.9726 21.0744 13.0473C21.0897 13.1387 21.1318 13.2508 21.2309 13.4381C21.2595 13.4921 21.2952 13.5559 21.3392 13.6346L21.3454 13.6456C21.4291 13.7951 21.5399 13.9931 21.627 14.1829C21.7744 14.5042 21.9178 14.9242 21.9094 15.4299C21.9044 15.7336 21.8551 16.313 21.7586 17.012C21.7455 17.1413 21.7264 17.2672 21.7039 17.3871C21.5856 18.1575 21.4106 19.0599 21.1664 19.9323C20.909 20.8524 20.5508 21.8286 20.0455 22.5847C19.8475 22.8808 19.5918 23.1916 19.2755 23.4485C19.2029 23.5075 19.1665 23.537 19.1462 23.5676C19.1258 23.5982 19.1134 23.6406 19.0884 23.7253C19.0504 23.8548 18.9912 24.0416 18.9181 24.2255C18.8554 24.3833 18.7783 24.5578 18.6895 24.7512C18.3397 25.5127 17.5241 25.8393 16.7981 25.7243C15.9327 25.5872 15.3015 25.6557 14.7327 25.7186C14.708 25.7213 14.6831 25.7241 14.658 25.727L14.6575 25.727C14.0653 25.7935 13.3459 25.8742 12.6363 25.4225C12.09 25.0747 11.8268 24.4512 11.6857 23.9502C11.5588 23.4992 11.4945 23.0128 11.4622 22.587L11.4424 22.3803C11.4363 22.3169 11.4333 22.2852 11.4117 22.2674C11.3902 22.2497 11.3586 22.2528 11.2953 22.2591L10.9743 22.291C9.6429 22.4739 7.47915 22.4045 5.62853 21.2907C5.28607 21.0846 4.84664 20.7701 4.60021 20.4405C4.35164 20.1081 4.20021 19.7738 4.14243 19.4448C4.13665 19.4119 4.13376 19.3954 4.12416 19.3857C4.11456 19.3759 4.09727 19.3726 4.06269 19.366C3.84391 19.3242 3.65142 19.1837 3.54658 18.9781C2.98512 17.8773 2.78845 16.6542 2.95793 15.5106C2.95894 15.5038 2.96004 15.497 2.96124 15.4902C3.00762 15.2281 3.07658 14.9827 3.16513 14.7532C3.1783 14.719 3.18488 14.702 3.1805 14.6875C3.17612 14.673 3.16006 14.6616 3.12795 14.639C2.96324 14.5226 2.84966 14.3407 2.82266 14.1321C2.71862 13.3282 2.72358 12.3373 3.01536 11.3153C3.30936 10.2855 4.14237 9.55368 5.08515 9.03096C5.86195 8.60027 6.78818 8.26904 7.74854 8.01223C7.80635 7.99678 7.83525 7.98905 7.85295 7.96843C7.87066 7.94781 7.87403 7.91745 7.88079 7.85672C7.90127 7.67253 7.93212 7.49718 7.97809 7.34392C8.30184 6.26451 8.99886 5.31207 9.60156 4.63327C9.97199 4.21607 10.2598 3.96897 10.4622 3.82346C10.7274 3.63285 11.0742 3.60843 11.3608 3.76483C11.6356 3.91482 11.7928 4.19495 11.8056 4.48551C11.8266 4.96205 11.8835 6.21337 11.958 7.56667C11.9606 7.61282 11.9618 7.6359 11.9773 7.6482C11.9929 7.6605 12.0155 7.65643 12.0608 7.64828C12.1049 7.64036 12.1501 7.63216 12.1868 7.62548C12.2254 7.61847 12.2446 7.61496 12.2585 7.60258C12.2723 7.5902 12.278 7.57136 12.2893 7.53368C12.3131 7.45493 12.3486 7.3375 12.3648 7.28756C12.6727 6.33684 13.2208 5.4913 13.7086 4.86414C14.0154 4.46982 14.259 4.2244 14.4384 4.07172C14.6915 3.85628 15.0518 3.79978 15.363 3.95643C15.6596 4.10569 15.821 4.40111 15.831 4.69742C15.8337 4.77754 15.8399 4.95474 15.8453 5.10685C15.8487 5.20439 15.8504 5.25316 15.8725 5.26514C15.8777 5.26793 15.8828 5.26954 15.8886 5.27018Z" fill="#0B0B17"/>
</svg>
