<svg width="567" height="567" viewBox="0 0 567 567" fill="none" xmlns="http://www.w3.org/2000/svg">
<g clip-path="url(#clip0_22_457)">
<rect width="567" height="567" rx="66.7059" fill="#F05A28"/>
<path d="M414.727 116.735C402.375 116.735 390.906 123.14 384.435 133.668L314.719 237.177C312.448 240.588 313.37 245.187 316.781 247.458C319.546 249.301 323.204 249.073 325.722 246.907L394.346 187.385C395.486 186.358 397.244 186.463 398.27 187.603C398.735 188.126 398.982 188.801 398.982 189.494V375.853C398.982 377.392 397.738 378.627 396.198 378.627C395.372 378.627 394.593 378.266 394.07 377.629L186.632 129.316C179.876 121.344 169.956 116.745 159.513 116.735H152.263C132.642 116.735 116.735 132.642 116.735 152.264V414.736C116.735 434.358 132.642 450.265 152.263 450.265C164.616 450.265 176.085 443.86 182.556 433.332L252.272 329.824C254.543 326.412 253.621 321.813 250.21 319.542C247.445 317.699 243.786 317.927 241.268 320.093L172.645 379.615C171.505 380.642 169.747 380.537 168.721 379.397C168.255 378.874 168.008 378.2 168.018 377.506V191.1C168.018 189.561 169.262 188.325 170.802 188.325C171.619 188.325 172.408 188.686 172.93 189.323L380.34 437.684C387.096 445.656 397.016 450.255 407.458 450.265H414.708C434.33 450.274 450.246 434.377 450.265 414.755V152.264C450.265 132.642 434.358 116.735 414.737 116.735H414.727Z" fill="white"/>
</g>
<defs>
<clipPath id="clip0_22_457">
<rect width="567" height="567" fill="white"/>
</clipPath>
</defs>
</svg>
