<svg width="2373" height="567" viewBox="0 0 2373 567" fill="none" xmlns="http://www.w3.org/2000/svg">
<rect width="567" height="567" rx="66.7059" fill="#3B82F6"/>
<path fill-rule="evenodd" clip-rule="evenodd" d="M214.354 467.335C201.834 467.335 191.674 457.174 191.674 444.655V175.262L115.877 230.125C105.717 237.496 91.5188 235.205 84.1932 225.045C76.8676 214.907 79.1356 200.732 89.2735 193.383L201.063 112.484C207.958 107.471 217.121 106.791 224.673 110.647C232.271 114.525 237.034 122.35 237.034 130.855V444.655C237.034 457.174 226.873 467.335 214.354 467.335Z" fill="white"/>
<path fill-rule="evenodd" clip-rule="evenodd" d="M353.646 467.355C350.13 467.355 346.592 466.539 343.326 464.883C335.729 461.005 330.966 453.203 330.966 444.675V130.853C330.966 118.333 341.126 108.173 353.646 108.173C366.165 108.173 376.326 118.333 376.326 130.853V400.268L452.122 345.36C462.283 338.011 476.458 340.279 483.806 350.44C491.132 360.578 488.864 374.753 478.726 382.101L366.936 463.046C363.013 465.904 358.341 467.355 353.646 467.355Z" fill="white"/>
<path d="M721.544 453C718.244 453 715.439 451.845 713.13 449.535C710.82 447.226 709.665 444.421 709.665 441.122V207.515C709.665 204.216 710.82 201.411 713.13 199.101C715.439 196.792 718.244 195.637 721.544 195.637H762.623C766.252 195.637 769.057 196.792 771.036 199.101C773.346 201.411 774.501 204.216 774.501 207.515V441.122C774.501 444.421 773.346 447.226 771.036 449.535C769.057 451.845 766.252 453 762.623 453H721.544ZM719.564 153.073C715.934 153.073 712.965 152.083 710.655 150.103C708.675 147.794 707.686 144.824 707.686 141.195V105.56C707.686 102.26 708.675 99.4558 710.655 97.1461C712.965 94.8365 715.934 93.6816 719.564 93.6816H764.602C768.232 93.6816 771.201 94.8365 773.511 97.1461C775.821 99.4558 776.976 102.26 776.976 105.56V141.195C776.976 144.824 775.821 147.794 773.511 150.103C771.201 152.083 768.232 153.073 764.602 153.073H719.564Z" fill="white"/>
<path d="M827.296 453C823.996 453 821.192 451.845 818.882 449.535C816.572 447.226 815.418 444.421 815.418 441.122V207.515C815.418 204.216 816.572 201.411 818.882 199.101C821.192 196.792 823.996 195.637 827.296 195.637H867.88C871.18 195.637 873.984 196.792 876.294 199.101C878.604 201.411 879.758 204.216 879.758 207.515V227.807C888.337 217.249 899.226 208.505 912.424 201.576C925.952 194.317 942.614 190.688 962.411 190.688C982.539 190.688 1000.03 195.307 1014.87 204.546C1029.72 213.454 1041.11 226.158 1049.02 242.655C1057.27 259.153 1061.4 278.95 1061.4 302.047V441.122C1061.4 444.421 1060.24 447.226 1057.93 449.535C1055.62 451.845 1052.82 453 1049.52 453H1005.97C1002.67 453 999.861 451.845 997.551 449.535C995.242 447.226 994.087 444.421 994.087 441.122V305.016C994.087 285.879 989.303 270.866 979.734 259.978C970.495 249.089 956.967 243.645 939.15 243.645C921.992 243.645 908.299 249.089 898.071 259.978C887.842 270.866 882.728 285.879 882.728 305.016V441.122C882.728 444.421 881.573 447.226 879.263 449.535C876.954 451.845 874.149 453 870.85 453H827.296Z" fill="white"/>
<path d="M1212.93 453C1193.13 453 1176.47 449.535 1162.94 442.606C1149.41 435.677 1139.35 425.449 1132.75 411.921C1126.15 398.063 1122.85 380.905 1122.85 360.448V248.099H1083.75C1080.45 248.099 1077.65 246.945 1075.34 244.635C1073.03 242.325 1071.87 239.521 1071.87 236.221V207.515C1071.87 204.216 1073.03 201.411 1075.34 199.101C1077.65 196.792 1080.45 195.637 1083.75 195.637H1122.85V113.479C1122.85 110.179 1123.84 107.375 1125.82 105.065C1128.13 102.755 1131.1 101.6 1134.73 101.6H1174.82C1178.12 101.6 1180.92 102.755 1183.23 105.065C1185.54 107.375 1186.7 110.179 1186.7 113.479V195.637H1248.56C1251.86 195.637 1254.67 196.792 1256.98 199.101C1259.28 201.411 1260.44 204.216 1260.44 207.515V236.221C1260.44 239.521 1259.28 242.325 1256.98 244.635C1254.67 246.945 1251.86 248.099 1248.56 248.099H1186.7V355.499C1186.7 369.027 1189.01 379.585 1193.62 387.174C1198.57 394.763 1206.99 398.558 1218.87 398.558H1253.02C1256.32 398.558 1259.12 399.713 1261.43 402.022C1263.74 404.332 1264.89 407.136 1264.89 410.436V441.122C1264.89 444.421 1263.74 447.226 1261.43 449.535C1259.12 451.845 1256.32 453 1253.02 453H1212.93Z" fill="white"/>
<path d="M1394.92 457.949C1358.29 457.949 1329.26 447.391 1307.81 426.274C1286.36 405.157 1274.81 375.131 1273.16 336.197C1272.83 332.897 1272.67 328.773 1272.67 323.823C1272.67 318.544 1272.83 314.42 1273.16 311.45C1274.48 286.704 1280.09 265.257 1289.99 247.11C1300.22 228.962 1314.24 215.104 1332.06 205.536C1349.88 195.637 1370.83 190.688 1394.92 190.688C1421.64 190.688 1444.08 196.297 1462.23 207.515C1480.37 218.404 1494.07 233.746 1503.31 253.544C1512.55 273.011 1517.16 295.613 1517.16 321.349V331.742C1517.16 335.042 1516.01 337.846 1513.7 340.156C1511.39 342.466 1508.42 343.621 1504.79 343.621H1340.48C1340.48 343.621 1340.48 344.116 1340.48 345.105C1340.48 346.095 1340.48 346.92 1340.48 347.58C1340.81 359.128 1342.95 369.852 1346.91 379.75C1351.2 389.319 1357.3 397.073 1365.22 403.012C1373.47 408.951 1383.2 411.921 1394.42 411.921C1403.66 411.921 1411.41 410.601 1417.68 407.961C1423.95 404.992 1429.07 401.692 1433.03 398.063C1436.99 394.433 1439.79 391.464 1441.44 389.154C1444.41 385.195 1446.72 382.885 1448.37 382.225C1450.35 381.235 1453.15 380.74 1456.78 380.74H1499.35C1502.65 380.74 1505.29 381.73 1507.27 383.71C1509.58 385.69 1510.57 388.164 1510.24 391.134C1509.91 396.413 1507.1 402.847 1501.82 410.436C1496.87 418.025 1489.61 425.449 1480.05 432.708C1470.48 439.967 1458.43 446.071 1443.92 451.02C1429.73 455.64 1413.39 457.949 1394.92 457.949ZM1340.48 302.047H1449.85V300.562C1449.85 287.694 1447.71 276.475 1443.42 266.907C1439.13 257.338 1432.86 249.749 1424.61 244.14C1416.36 238.531 1406.47 235.726 1394.92 235.726C1383.37 235.726 1373.47 238.531 1365.22 244.14C1356.97 249.749 1350.7 257.338 1346.41 266.907C1342.45 276.475 1340.48 287.694 1340.48 300.562V302.047Z" fill="white"/>
<path d="M1556.83 453C1553.53 453 1550.73 451.845 1548.42 449.535C1546.11 447.226 1544.95 444.421 1544.95 441.122V207.515C1544.95 204.216 1546.11 201.411 1548.42 199.101C1550.73 196.792 1553.53 195.637 1556.83 195.637H1597.42C1600.72 195.637 1603.52 196.792 1605.83 199.101C1608.14 201.411 1609.29 204.216 1609.29 207.515V227.807C1617.87 217.249 1628.76 208.505 1641.96 201.576C1655.49 194.317 1672.15 190.688 1691.95 190.688C1712.08 190.688 1729.56 195.307 1744.41 204.546C1759.26 213.454 1770.64 226.158 1778.56 242.655C1786.81 259.153 1790.93 278.95 1790.93 302.047V441.122C1790.93 444.421 1789.78 447.226 1787.47 449.535C1785.16 451.845 1782.36 453 1779.06 453H1735.5C1732.2 453 1729.4 451.845 1727.09 449.535C1724.78 447.226 1723.62 444.421 1723.62 441.122V305.016C1723.62 285.879 1718.84 270.866 1709.27 259.978C1700.03 249.089 1686.5 243.645 1668.69 243.645C1651.53 243.645 1637.84 249.089 1627.61 259.978C1617.38 270.866 1612.26 285.879 1612.26 305.016V441.122C1612.26 444.421 1611.11 447.226 1608.8 449.535C1606.49 451.845 1603.69 453 1600.39 453H1556.83Z" fill="white"/>
<path d="M1942.46 453C1922.67 453 1906 449.535 1892.48 442.606C1878.95 435.677 1868.88 425.449 1862.28 411.921C1855.69 398.063 1852.39 380.905 1852.39 360.448V248.099H1813.29C1809.99 248.099 1807.18 246.945 1804.87 244.635C1802.56 242.325 1801.41 239.521 1801.41 236.221V207.515C1801.41 204.216 1802.56 201.411 1804.87 199.101C1807.18 196.792 1809.99 195.637 1813.29 195.637H1852.39V113.479C1852.39 110.179 1853.38 107.375 1855.36 105.065C1857.67 102.755 1860.63 101.6 1864.26 101.6H1904.35C1907.65 101.6 1910.46 102.755 1912.77 105.065C1915.08 107.375 1916.23 110.179 1916.23 113.479V195.637H1978.1C1981.4 195.637 1984.2 196.792 1986.51 199.101C1988.82 201.411 1989.98 204.216 1989.98 207.515V236.221C1989.98 239.521 1988.82 242.325 1986.51 244.635C1984.2 246.945 1981.4 248.099 1978.1 248.099H1916.23V355.499C1916.23 369.027 1918.54 379.585 1923.16 387.174C1928.11 394.763 1936.52 398.558 1948.4 398.558H1982.55C1985.85 398.558 1988.66 399.713 1990.97 402.022C1993.28 404.332 1994.43 407.136 1994.43 410.436V441.122C1994.43 444.421 1993.28 447.226 1990.97 449.535C1988.66 451.845 1985.85 453 1982.55 453H1942.46Z" fill="white"/>
<path d="M2111.09 457.949C2091.29 457.949 2074.3 455.64 2060.11 451.02C2046.26 446.401 2034.87 440.627 2025.96 433.698C2017.05 426.769 2010.46 419.84 2006.17 412.911C2001.88 405.982 1999.57 400.207 1999.24 395.588C1998.91 391.959 1999.9 389.154 2002.21 387.174C2004.85 384.865 2007.65 383.71 2010.62 383.71H2049.72C2051.04 383.71 2052.19 383.875 2053.18 384.205C2054.17 384.535 2055.49 385.525 2057.14 387.174C2061.43 390.804 2065.89 394.598 2070.51 398.558C2075.46 402.517 2081.23 405.982 2087.83 408.951C2094.43 411.591 2102.68 412.911 2112.58 412.911C2125.44 412.911 2136.17 410.436 2144.75 405.487C2153.65 400.207 2158.11 392.784 2158.11 383.215C2158.11 376.286 2156.13 370.677 2152.17 366.387C2148.54 362.098 2141.61 358.304 2131.38 355.004C2121.15 351.375 2106.64 347.58 2087.83 343.621C2069.35 339.331 2054.01 333.887 2041.8 327.288C2029.59 320.689 2020.52 312.44 2014.58 302.542C2008.64 292.643 2005.67 281.095 2005.67 267.897C2005.67 255.028 2009.47 242.82 2017.05 231.272C2024.97 219.394 2036.52 209.66 2051.7 202.071C2067.21 194.482 2086.34 190.688 2109.11 190.688C2126.93 190.688 2142.44 192.997 2155.63 197.617C2168.83 201.906 2179.72 207.35 2188.3 213.949C2197.21 220.548 2203.97 227.312 2208.59 234.241C2213.21 240.84 2215.69 246.615 2216.02 251.564C2216.35 255.193 2215.36 258.163 2213.05 260.473C2210.74 262.452 2208.1 263.442 2205.13 263.442H2168.5C2166.85 263.442 2165.37 263.112 2164.05 262.452C2162.73 261.792 2161.41 260.968 2160.09 259.978C2156.46 256.678 2152.5 253.214 2148.21 249.584C2143.92 245.955 2138.64 242.82 2132.37 240.181C2126.43 237.211 2118.51 235.726 2108.62 235.726C2096.08 235.726 2086.51 238.531 2079.91 244.14C2073.31 249.419 2070.01 256.183 2070.01 264.432C2070.01 270.041 2071.5 274.991 2074.47 279.28C2077.77 283.239 2084.2 287.034 2093.77 290.663C2103.34 294.293 2117.85 298.087 2137.32 302.047C2159.43 306.006 2176.92 311.945 2189.78 319.864C2202.98 327.453 2212.22 336.362 2217.5 346.59C2223.11 356.489 2225.91 367.542 2225.91 379.75C2225.91 394.598 2221.46 407.961 2212.55 419.84C2203.97 431.718 2191.1 441.122 2173.95 448.051C2157.12 454.65 2136.17 457.949 2111.09 457.949Z" fill="white"/>
</svg>
