<svg width="36" height="36" viewBox="0 0 36 36" fill="none" xmlns="http://www.w3.org/2000/svg">
<g clip-path="url(#clip0_5235_37936)">
<path d="M0 12C0 5.37258 5.37258 0 12 0H24C30.6274 0 36 5.37258 36 12V24C36 30.6274 30.6274 36 24 36H12C5.37258 36 0 30.6274 0 24V12Z" fill="#2D65F7"/>
<path fill-rule="evenodd" clip-rule="evenodd" d="M8 18C8 23.5229 12.4772 28 18 28C23.5229 28 28 23.5229 28 18C28 12.4772 23.5229 8 18 8C12.4772 8 8 12.4772 8 18ZM15.4444 14.7778C15.0762 14.7778 14.7778 15.0762 14.7778 15.4444V20.5555C14.7778 20.9237 15.0762 21.2223 15.4444 21.2223H20.5555C20.9237 21.2223 21.2222 20.9237 21.2222 20.5555V15.4444C21.2222 15.0762 20.9237 14.7778 20.5555 14.7778H15.4444Z" fill="white"/>
</g>
<defs>
<clipPath id="clip0_5235_37936">
<rect width="36" height="36" fill="white"/>
</clipPath>
</defs>
</svg>
