<svg width="36" height="36" viewBox="0 0 36 36" fill="none" xmlns="http://www.w3.org/2000/svg">
<g clip-path="url(#clip0_5235_37939)">
<path d="M0 12C0 5.37258 5.37258 0 12 0H24C30.6274 0 36 5.37258 36 12V24C36 30.6274 30.6274 36 24 36H12C5.37258 36 0 30.6274 0 24V12Z" fill="#041417"/>
<g clip-path="url(#clip1_5235_37939)">
<path d="M25.8486 25.8718L21.9651 24.7206L19.0364 26.4635L16.9931 26.4626L14.0626 24.7206L10.1808 25.8718L9 21.9036L10.1808 17.4995L9 13.776L10.1808 9.16113L16.2465 12.7687H19.7829L25.8486 9.16113L27.0294 13.776L25.8486 17.4995L27.0294 21.9036L25.8486 25.8718Z" fill="#FF5C16"/>
<path d="M10.1816 9.16113L16.2473 12.7712L16.0061 15.2488L10.1816 9.16113Z" fill="#FF5C16"/>
<path d="M14.0635 21.9053L16.7323 23.9292L14.0635 24.7206V21.9053Z" fill="#FF5C16"/>
<path d="M16.5192 18.5592L16.0063 15.2505L12.7229 17.5004L12.7212 17.4995V17.5012L12.7313 19.8171L14.0628 18.5592H14.0637H16.5192Z" fill="#FF5C16"/>
<path d="M25.8484 9.16113L19.7827 12.7712L20.0231 15.2488L25.8484 9.16113Z" fill="#FF5C16"/>
<path d="M21.9667 21.9053L19.2979 23.9292L21.9667 24.7206V21.9053Z" fill="#FF5C16"/>
<path d="M23.3084 17.5012V17.4995L23.3076 17.5004L20.0241 15.2505L19.5112 18.5592H21.9668L23.2991 19.8171L23.3084 17.5012Z" fill="#FF5C16"/>
<path d="M14.0626 24.7206L10.1808 25.8717L9 21.9053H14.0626V24.7206Z" fill="#E34807"/>
<path d="M16.5182 18.5579L17.2597 23.3412L16.2321 20.6816L12.7295 19.8166L14.0618 18.5579H16.5173H16.5182Z" fill="#E34807"/>
<path d="M21.9668 24.7206L25.8486 25.8717L27.0295 21.9053H21.9668V24.7206Z" fill="#E34807"/>
<path d="M19.5111 18.5579L18.7695 23.3412L19.7972 20.6816L23.2998 19.8166L21.9666 18.5579H19.5111Z" fill="#E34807"/>
<path d="M9 21.9036L10.1808 17.4995H12.7202L12.7295 19.8162L16.2321 20.6813L17.2597 23.3408L16.7315 23.9266L14.0626 21.9028H9V21.9036Z" fill="#FF8D5D"/>
<path d="M27.0292 21.9036L25.8484 17.4995H23.3091L23.2998 19.8162L19.7972 20.6813L18.7695 23.3408L19.2977 23.9266L21.9666 21.9028H27.0292V21.9036Z" fill="#FF8D5D"/>
<path d="M19.7832 12.7683H18.015H16.2468L16.0063 15.2459L17.26 23.338H18.77L20.0244 15.2459L19.7832 12.7683Z" fill="#FF8D5D"/>
<path d="M10.1808 9.16113L9 13.776L10.1808 17.4995H12.7202L16.0053 15.2488L10.1808 9.16113Z" fill="#661800"/>
<path d="M15.7845 19.5189H14.6342L14.0078 20.13L16.2331 20.6794L15.7845 19.5181V19.5189Z" fill="#661800"/>
<path d="M25.8484 9.16113L27.0291 13.776L25.8484 17.4995H23.309L20.0239 15.2488L25.8484 9.16113Z" fill="#661800"/>
<path d="M20.2469 19.5189H21.3989L22.0252 20.1309L19.7974 20.6811L20.2469 19.5181V19.5189Z" fill="#661800"/>
<path d="M19.0353 24.8845L19.2978 23.928L18.7696 23.3423H17.2587L16.7305 23.928L16.9929 24.8845" fill="#661800"/>
<path d="M19.0361 24.8845V26.464H16.9937V24.8845H19.0361Z" fill="#C0C4CD"/>
<path d="M14.0635 24.7189L16.9948 26.4635V24.884L16.7323 23.9275L14.0635 24.7189Z" fill="#E7EBF6"/>
<path d="M21.9674 24.7189L19.0361 26.4635V24.884L19.2985 23.9275L21.9674 24.7189Z" fill="#E7EBF6"/>
</g>
</g>
<defs>
<clipPath id="clip0_5235_37939">
<rect width="36" height="36" fill="white"/>
</clipPath>
<clipPath id="clip1_5235_37939">
<rect width="18.0294" height="17.5143" fill="white" transform="translate(9 9)"/>
</clipPath>
</defs>
</svg>
