<svg width="36" height="36" viewBox="0 0 36 36" fill="none" xmlns="http://www.w3.org/2000/svg">
<g clip-path="url(#clip0_5235_37940)">
<path d="M0 12C0 5.37258 5.37258 0 12 0H24C30.6274 0 36 5.37258 36 12V24C36 30.6274 30.6274 36 24 36H12C5.37258 36 0 30.6274 0 24V12Z" fill="#041417"/>
<g clip-path="url(#clip1_5235_37940)">
<path d="M27.9022 22.6149L24.7656 25.7821C24.6975 25.8509 24.615 25.9057 24.5233 25.9432C24.4316 25.9807 24.3327 26.0001 24.2328 26H9.36413C9.29318 26 9.22378 25.9805 9.16445 25.9439C9.10513 25.9072 9.05846 25.8551 9.03018 25.7938C9.0019 25.7325 8.99324 25.6648 9.00527 25.599C9.01731 25.5332 9.0495 25.4721 9.0979 25.4232L12.2368 22.256C12.3048 22.1874 12.387 22.1326 12.4784 22.0952C12.5698 22.0577 12.6684 22.0383 12.768 22.0381H27.6359C27.7068 22.0381 27.7762 22.0576 27.8356 22.0942C27.8948 22.1309 27.9415 22.183 27.9699 22.2443C27.9981 22.3056 28.0068 22.3733 27.9947 22.4391C27.9827 22.5049 27.9505 22.566 27.9022 22.6149ZM24.7656 16.2369C24.6975 16.1681 24.615 16.1133 24.5233 16.0758C24.4316 16.0383 24.3327 16.019 24.2328 16.0191H9.36413C9.29318 16.0191 9.22378 16.0386 9.16445 16.0752C9.10513 16.1118 9.05846 16.164 9.03018 16.2252C9.0019 16.2865 8.99324 16.3542 9.00527 16.4201C9.01731 16.4859 9.0495 16.547 9.0979 16.5958L12.2368 19.7631C12.3048 19.8317 12.387 19.8864 12.4784 19.9239C12.5698 19.9614 12.6684 19.9808 12.768 19.9809H27.6359C27.7068 19.9809 27.7762 19.9614 27.8356 19.9248C27.8948 19.8882 27.9415 19.836 27.9699 19.7748C27.9981 19.7135 28.0068 19.6458 27.9947 19.5799C27.9827 19.5141 27.9505 19.453 27.9022 19.4042L24.7656 16.2369ZM9.36413 13.9619H24.2328C24.3327 13.9619 24.4316 13.9426 24.5233 13.9051C24.615 13.8677 24.6975 13.8128 24.7656 13.744L27.9022 10.5768C27.9505 10.5279 27.9827 10.4668 27.9947 10.401C28.0068 10.3352 27.9981 10.2675 27.9699 10.2062C27.9415 10.1449 27.8948 10.0928 27.8356 10.0561C27.7762 10.0195 27.7068 10 27.6359 10H12.768C12.6684 10.0002 12.5698 10.0196 12.4784 10.0571C12.387 10.0945 12.3048 10.1493 12.2368 10.2179L9.09871 13.3851C9.05036 13.4339 9.01818 13.495 9.00612 13.5607C8.99406 13.6265 9.00265 13.6941 9.03082 13.7554C9.059 13.8166 9.10555 13.8687 9.16476 13.9054C9.22396 13.9421 9.29325 13.9617 9.36413 13.9619Z" fill="url(#paint0_linear_5235_37940)"/>
</g>
</g>
<defs>
<linearGradient id="paint0_linear_5235_37940" x1="10.6038" y1="26.3813" x2="25.154" y2="8.96106" gradientUnits="userSpaceOnUse">
<stop offset="0.08" stop-color="#9945FF"/>
<stop offset="0.3" stop-color="#8752F3"/>
<stop offset="0.5" stop-color="#5497D5"/>
<stop offset="0.6" stop-color="#43B4CA"/>
<stop offset="0.72" stop-color="#28E0B9"/>
<stop offset="0.97" stop-color="#19FB9B"/>
</linearGradient>
<clipPath id="clip0_5235_37940">
<rect width="36" height="36" fill="white"/>
</clipPath>
<clipPath id="clip1_5235_37940">
<rect width="19" height="16" fill="white" transform="translate(9 10)"/>
</clipPath>
</defs>
</svg>
