<svg width="36" height="36" viewBox="0 0 36 36" fill="none" xmlns="http://www.w3.org/2000/svg">
<g clip-path="url(#clip0_5235_37937)">
<path d="M0 12C0 5.37258 5.37258 0 12 0H24C30.6274 0 36 5.37258 36 12V24C36 30.6274 30.6274 36 24 36H12C5.37258 36 0 30.6274 0 24V12Z" fill="#3396FF"/>
<path d="M9.73223 13.3215C14.2983 8.89282 21.7017 8.89282 26.2678 13.3215L26.8173 13.8545C27.0457 14.0759 27.0457 14.435 26.8173 14.6563L24.9375 16.4797C24.8233 16.5904 24.6383 16.5904 24.5241 16.4797L23.7679 15.7462C20.5823 12.6566 15.4177 12.6566 12.2322 15.7462L11.4223 16.5317C11.3081 16.6424 11.123 16.6424 11.0089 16.5317L9.12901 14.7084C8.90066 14.487 8.90066 14.1279 9.12901 13.9065L9.73223 13.3215ZM30.1557 17.0923L31.8287 18.715C32.0571 18.9364 32.0571 19.2954 31.8287 19.5168L24.2845 26.8339C24.0563 27.0554 23.6861 27.0554 23.4578 26.8339L18.1034 21.6408C18.0463 21.5854 17.9538 21.5854 17.8967 21.6408L12.5424 26.8339C12.3141 27.0554 11.9439 27.0554 11.7156 26.8339L4.17123 19.5167C3.94292 19.2953 3.94292 18.9363 4.17123 18.7149L5.84435 17.0922C6.07266 16.8708 6.44282 16.8708 6.67113 17.0922L12.0256 22.2853C12.0827 22.3407 12.1752 22.3407 12.2323 22.2853L17.5865 17.0922C17.8148 16.8707 18.1849 16.8707 18.4133 17.0922L23.7677 22.2853C23.8248 22.3407 23.9174 22.3407 23.9744 22.2853L29.3289 17.0923C29.5571 16.8708 29.9273 16.8708 30.1557 17.0923Z" fill="white"/>
</g>
<defs>
<clipPath id="clip0_5235_37937">
<rect width="36" height="36" fill="white"/>
</clipPath>
</defs>
</svg>
